C:\GBW_MyPrograms\KinderuniversiteitApp\Resultaten\Ellis_v10102025\Aarde\Aarde_v3.mot
version=1
nRows=8
nColumns=29
inDegrees=yes
endheader
                time	         pelvis_tilt	           pelvis_tx	           pelvis_ty	       hip_flexion_l	       hip_flexion_r	        knee_angle_l	        knee_angle_r	       ankle_angle_l	       ankle_angle_r	    lumbar_extension	hamstrings_r/activation	bifemsh_r/activation	glut_max_r/activation	iliopsoas_r/activation	rect_fem_r/activation	  vasti_r/activation	gastroc_r/activation	 soleus_r/activation	tib_ant_r/activation	hamstrings_l/activation	bifemsh_l/activation	glut_max_l/activation	iliopsoas_l/activation	rect_fem_l/activation	  vasti_l/activation	gastroc_l/activation	 soleus_l/activation	tib_ant_l/activation	
          0.94266723	         -8.10020643	          1.23872208	          0.89223109	         -9.37956917	         30.99291657	         -9.25988827	         -8.28423482	          5.88319958	          9.26797010	          1.71893494	          0.26825802	          0.05000000	          0.05672278	          0.05000000	          0.07746316	          0.06694329	          0.05000000	          0.05319795	          0.22332152	          0.05000000	          0.16312207	          0.05000000	          0.64968878	          0.05000000	          0.05000000	          0.18594531	          0.31969646	          0.05000000	
          0.95209390	         -8.11595237	          1.25397993	          0.89174909	         -8.80839819	         30.15691077	        -12.00510587	         -7.86694269	          5.16494747	          9.10175483	          2.05815710	          0.24327955	          0.05000000	          0.06140006	          0.05000000	          0.06694530	          0.08289384	          0.05000000	          0.05000000	          0.24197744	          0.05000000	          0.14097354	          0.05000000	          0.56732105	          0.05000000	          0.05000000	          0.16069788	          0.27628845	          0.05000000	
          0.96152058	         -8.12789011	          1.26939626	          0.89120782	         -8.03493939	         29.29538051	        -15.10297636	         -7.96082375	          4.23015667	          8.84006097	          2.41504949	          0.21428629	          0.06042623	          0.10813152	          0.05000000	          0.05785555	          0.07554939	          0.06329840	          0.05785558	          0.23046973	          0.05394000	          0.12183232	          0.05000000	          0.49029086	          0.05000000	          0.05000000	          0.13887851	          0.23877433	          0.05000000	
          0.97094725	         -8.13861662	          1.28476488	          0.89071629	         -7.04056577	         28.42433321	        -18.52399037	         -8.19248831	          2.94379787	          8.54347555	          2.76641022	          0.18519075	          0.06694526	          0.15361642	          0.05000000	          0.05000000	          0.11240849	          0.05470382	          0.05000001	          0.28592183	          0.05000000	          0.10529007	          0.06142330	          0.42371974	          0.05000000	          0.05000000	          0.12002175	          0.20635383	          0.05000000	
          0.98037392	         -8.15276658	          1.29978138	          0.89049627	         -5.80759477	         27.62270163	        -22.21997930	         -8.47263311	          1.25620891	          8.14883187	          3.07874405	          0.16004577	          0.05785552	          0.21108335	          0.05000000	          0.05000000	          0.19103598	          0.05000000	          0.05000000	          0.30698899	          0.05000000	          0.09099391	          0.05308332	          0.36618757	          0.06719798	          0.05000000	          0.10372533	          0.17833535	          0.25420003	
          0.98980059	         -8.17294556	          1.31421030	          0.89061522	         -4.38471501	         26.92044077	        -26.04952715	         -8.84926362	         -0.20897400	          7.80342461	          3.32523766	          0.13831495	          0.05000000	          0.22639600	          0.05000000	          0.05000000	          0.24097117	          0.05000000	          0.05000000	          0.33145153	          0.05000000	          0.07863887	          0.05000000	          0.31646705	          0.16619527	          0.05000000	          0.08964163	          0.15412118	          0.22862955	
          0.99922726	         -8.20071651	          1.32801907	          0.89113601	         -2.88922152	         26.28484055	        -29.67310318	         -9.26477518	         -0.54701922	          7.54622728	          3.50412107	          0.12472269	          0.05000001	          0.22007919	          0.05000000	          0.05000000	          0.26566709	          0.05000000	          0.05000000	          0.33229347	          0.05000000	          0.08386617	          0.05000000	          0.27349753	          0.23547971	          0.05000000	          0.07747020	          0.13319479	          0.29998648	
          1.00865394	         -8.23454116	          1.34131644	          0.89214086	         -1.39470269	         25.66257889	        -32.87927032	         -9.64383388	         -0.44789627	          7.40536116	          3.62818171	          0.11451579	          0.05000002	          0.21383543	          0.05000000	          0.05000000	          0.27026974	          0.05000000	          0.05000000	          0.32860991	          0.05356828	          0.12982762	          0.05000000	          0.23636235	          0.30685147	          0.05000000	          0.06695142	          0.11510976	          0.29972985	
